# xmcd
#
# Track frame offsets:
#	150
#	16843
#	37707
#	51354
#	64501
#	89717
#	104277
#	119428
#	134106
#	153250
#	165674
#	185806
#	200317
#	217877
#	240561
#	255597
#
# Disc length: 3678 seconds
#
# Revision: 1
# Processed by: cddbd v1.5.2PL0 Copyright (c) Steve Scherf et al.
# Submitted via: audiograbber 1.83.01
#
DISCID=da0e5c10
DTITLE=Isla Grant - I'm A Survivor
DYEAR=2017
DGENRE=Country
TTITLE0=Don't Think Twice
TTITLE1=The Bridle On The Wall
TTITLE2=Allice In Hullaland
TTITLE3=Speak To The Sky
TTITLE4=Dimming Of The Day
TTITLE5=They Called It Music
TTITLE6=Love Me
TTITLE7=Leavin' And Saying Goodbye
TTITLE8=Back Home
TTITLE9=A Love That Used To Be
TTITLE10=All The Lies
TTITLE11=Fly Butterfly Fly
TTITLE12=I'm A Survivor
TTITLE13=Little Boy Blue
TTITLE14=Nothing I Can Do About It Now
TTITLE15=In The Time That You Gave Me
EXTD=
EXTT0=
EXTT1=
EXTT2=
EXTT3=
EXTT4=
EXTT5=
EXTT6=
EXTT7=
EXTT8=
EXTT9=
EXTT10=
EXTT11=
EXTT12=
EXTT13=
EXTT14=
EXTT15=
PLAYORDER=
